<?xml version="1.0" encoding="utf-8"?>
<!-- Generator: Adobe Illustrator 28.1.0, SVG Export Plug-In . SVG Version: 6.00 Build 0)  -->
<svg version="1.1" id="Capa_1" xmlns="http://www.w3.org/2000/svg" xmlns:xlink="http://www.w3.org/1999/xlink" x="0px" y="0px"
	 viewBox="0 0 38.9 40.1" style="enable-background:new 0 0 38.9 40.1;" xml:space="preserve">
<style type="text/css">
	.st0{fill:#FFFFFF;}
</style>
<path class="st0" d="M19.5,40.1c-1.1,0-2-0.9-2-2V7.7L4.2,20.9c-0.8,0.8-2,0.8-2.8,0c-0.8-0.8-0.8-2,0-2.8L18.1,1.4
	c0.2-0.2,0.4-0.3,0.6-0.4c0.2-0.1,0.5-0.1,0.7-0.2c0,0,0,0,0,0c0,0,0,0,0.1,0c0,0,0,0,0,0c0.3,0,0.5,0.1,0.7,0.1
	c0.1,0,0.2,0.1,0.3,0.1l0,0c0,0,0,0,0,0c0.1,0.1,0.3,0.2,0.4,0.3c0,0,0,0,0,0l16.6,16.6c0.8,0.8,0.8,2,0,2.8c-0.8,0.8-2,0.8-2.8,0
	L21.5,7.7v30.4C21.5,39.2,20.6,40.1,19.5,40.1z"/>
</svg>
