<svg xmlns="http://www.w3.org/2000/svg" width="35.78" height="35.78" viewBox="0 0 35.78 35.78">
  <g id="instagram" transform="translate(-1.75 -1.75)">
    <path id="Path_498" data-name="Path 498" d="M14.5,21A6.5,6.5,0,1,0,8,14.5,6.5,6.5,0,0,0,14.5,21Z" transform="translate(5.14 5.14)" fill="none" stroke="#fff" stroke-linecap="round" stroke-linejoin="round" stroke-width="2.5"/>
    <path id="Path_499" data-name="Path 499" d="M3,27.036V12.244A9.244,9.244,0,0,1,12.244,3H27.036a9.244,9.244,0,0,1,9.244,9.244V27.036a9.245,9.245,0,0,1-9.244,9.244H12.244A9.244,9.244,0,0,1,3,27.036Z" fill="none" stroke="#fff" stroke-width="2.5"/>
    <path id="Path_500" data-name="Path 500" d="M17.5,6.51l.01-.011" transform="translate(11.28 3)" fill="none" stroke="#fff" stroke-linecap="round" stroke-linejoin="round" stroke-width="2.5"/>
  </g>
</svg>
