<svg xmlns="http://www.w3.org/2000/svg" width="33.83" height="25.664" viewBox="0 0 33.83 25.664">
  <g id="noun-filter-5572817" transform="translate(-2 -5)">
    <g id="Group_893" data-name="Group 893" transform="translate(2 5)">
      <path id="Path_490" data-name="Path 490" d="M448,170H435.167a1.167,1.167,0,0,0,0,2.333H448V173.5a1.167,1.167,0,0,0,2.333,0v-4.666a1.167,1.167,0,0,0-2.333,0Zm4.666,2.333H465.5a1.167,1.167,0,1,0,0-2.333H452.665a1.167,1.167,0,0,0,0,2.333Zm3.5-11.666h-21a1.167,1.167,0,0,0,0,2.333h21v1.167a1.167,1.167,0,1,0,2.333,0V159.5a1.167,1.167,0,1,0-2.333,0Zm9.332,0h-4.666a1.167,1.167,0,1,0,0,2.333H465.5a1.167,1.167,0,1,0,0-2.333Zm-25.664-9.332h-4.666a1.167,1.167,0,0,0,0,2.333h4.666v1.167a1.167,1.167,0,1,0,2.333,0v-4.666a1.167,1.167,0,1,0-2.333,0Zm4.666,2.333h22.164a1.167,1.167,0,1,0,0-2.333H444.5a1.167,1.167,0,1,0,0,2.333Z" transform="translate(-434 -149)" fill="#fff" fill-rule="evenodd"/>
    </g>
  </g>
</svg>
