<?xml version="1.0" encoding="utf-8"?>
<!-- Generator: Adobe Illustrator 28.1.0, SVG Export Plug-In . SVG Version: 6.00 Build 0)  -->
<svg version="1.1" id="Capa_1" xmlns="http://www.w3.org/2000/svg" xmlns:xlink="http://www.w3.org/1999/xlink" x="0px" y="0px"
	 viewBox="0 0 40.1 39.2" style="enable-background:new 0 0 40.1 39.2;" xml:space="preserve">
<style type="text/css">
	.st0{fill-rule:evenodd;clip-rule:evenodd;fill:#FFFFFF;}
</style>
<g id="Icon">
	<g>
		<path class="st0" d="M15.8,0.2C7.6,0.2,1,6.8,1,15s6.6,14.8,14.8,14.8S30.6,23.2,30.6,15S24,0.2,15.8,0.2z M15.8,2.5
			c6.9,0,12.6,5.6,12.6,12.6s-5.6,12.6-12.6,12.6S3.2,22,3.2,15S8.9,2.5,15.8,2.5z"/>
		<path class="st0" d="M39.4,37.1L26.3,23.9c-0.4-0.4-1.2-0.4-1.6,0s-0.4,1.2,0,1.6l13.1,13.1c0.4,0.4,1.2,0.4,1.6,0
			C39.9,38.2,39.9,37.5,39.4,37.1z"/>
	</g>
</g>
</svg>
