<?xml version="1.0" encoding="utf-8"?>
<!-- Generator: Adobe Illustrator 28.1.0, SVG Export Plug-In . SVG Version: 6.00 Build 0)  -->
<svg version="1.1" id="Capa_1" xmlns="http://www.w3.org/2000/svg" xmlns:xlink="http://www.w3.org/1999/xlink" x="0px" y="0px"
	 viewBox="0 0 36.3 40.6" style="enable-background:new 0 0 36.3 40.6;" xml:space="preserve">
<style type="text/css">
	.st0{fill:#AE7204;}
</style>
<g id="shopping-bag" transform="translate(-2.074 1.24)">
	<path class="st0" d="M33.3,39.4h-26c-1.4,0-2.7-0.6-3.6-1.7c-1.2-1.3-1.7-3.2-1.5-5l2.7-20.9c0.1-2.6,2.3-4.8,5-5h20.7
		c2.8,0.2,4.9,2.4,5.1,5.1l2.7,20.8c0.2,1.9-0.3,3.7-1.5,5C35.9,38.8,34.6,39.4,33.3,39.4z M30.5,9.2H10C8.6,9.4,7.4,10.5,7.3,12
		L4.6,32.9C4.5,34,4.8,35.2,5.5,36c0.5,0.6,1.1,0.9,1.8,0.9h26c0.6,0,1.3-0.3,1.8-0.9c0.7-0.8,1-1.9,0.9-3.1L33.3,12v-0.1
		C33.1,10.5,31.9,9.4,30.5,9.2z"/>
	<path class="st0" d="M25.2,6.3C24.5,6.3,24,5.7,24,5c0-2.1-1.7-3.7-3.7-3.7c-2.1,0-3.7,1.7-3.7,3.7c0,0.7-0.6,1.2-1.2,1.2
		S14,5.7,14,5c0-3.4,2.8-6.2,6.2-6.2s6.2,2.8,6.2,6.2C26.5,5.7,25.9,6.3,25.2,6.3z"/>
</g>
</svg>
