<?xml version="1.0" encoding="utf-8"?>
<!-- Generator: Adobe Illustrator 28.1.0, SVG Export Plug-In . SVG Version: 6.00 Build 0)  -->
<svg version="1.1" id="Capa_1" xmlns="http://www.w3.org/2000/svg" xmlns:xlink="http://www.w3.org/1999/xlink" x="0px" y="0px"
	 viewBox="0 0 36.3 40.1" style="enable-background:new 0 0 36.3 40.1;" xml:space="preserve">
<style type="text/css">
	.st0{fill:#AE7204;}
</style>
<g id="trash" transform="translate(-1.75 -0.75)">
	<path class="st0" d="M11.9,40.8c-2.7-0.1-4.8-2.1-5.2-4.7l-4-24.6c-0.1-0.7,0.4-1.3,1-1.4c0.7-0.1,1.3,0.4,1.4,1l4,24.7
		c0.2,1.4,1.3,2.5,2.7,2.5l16,0c1.4-0.1,2.5-1.1,2.7-2.5l4-24.7c0.1-0.7,0.8-1.1,1.4-1c0.7,0.1,1.1,0.8,1,1.4l-4,24.7
		c-0.3,2.6-2.5,4.6-5.1,4.7L11.9,40.8z"/>
	<path class="st0" d="M36.8,7.2H3C2.3,7.2,1.8,6.7,1.8,6S2.3,4.7,3,4.7h9.3V4c0-1.9,2.2-3.2,5-3.2h5.2c2.9,0,5,1.4,5,3.2v0.7h9.3
		c0.7,0,1.2,0.6,1.2,1.2S37.5,7.2,36.8,7.2z M14.8,4.7H25V4c-0.1-0.2-1-0.8-2.5-0.8h-5.2c-1.5,0-2.4,0.6-2.5,0.8L14.8,4.7z"/>
</g>
</svg>
