<?xml version="1.0" encoding="utf-8"?>
<!-- Generator: Adobe Illustrator 28.1.0, SVG Export Plug-In . SVG Version: 6.00 Build 0)  -->
<svg version="1.1" id="Capa_1" xmlns="http://www.w3.org/2000/svg" xmlns:xlink="http://www.w3.org/1999/xlink" x="0px" y="0px"
	 viewBox="0 0 40.1 39.2" style="enable-background:new 0 0 40.1 39.2;" xml:space="preserve">
<style type="text/css">
	.st0{fill:#FFFFFF;}
</style>
<g id="user_Icon" transform="translate(-3.296 -4.25)">
	<path class="st0" d="M23,23.7c-5.4,0-9.8-4.4-9.8-9.8s4.4-9.8,9.8-9.8s9.8,4.4,9.8,9.8S28.4,23.7,23,23.7z M23,6.7
		c-4,0-7.2,3.3-7.2,7.3s3.3,7.2,7.2,7.2c4,0,7.2-3.3,7.2-7.2S27,6.7,23,6.7z"/>
	<path class="st0" d="M6.8,43.4c-0.8,0-1.7-0.3-2.3-0.9C3.8,41.8,3.3,41,3.3,40c0-0.1,0-0.3,0-0.4c0.2-1.4,0.4-2.8,0.8-4.1
		c1.6-5.7,7.5-9.4,15.1-9.4h8.3c7.5,0,13.5,3.7,15.1,9.4c0.4,1.3,0.6,2.7,0.8,4c0.1,1-0.2,1.9-0.8,2.6c-0.6,0.7-1.5,1.1-2.4,1.2
		c-0.1,0-0.3,0-0.4,0l-32.7,0C6.9,43.4,6.8,43.4,6.8,43.4z M5.8,39.8C5.8,39.8,5.8,39.9,5.8,39.8c0,0.4,0.1,0.6,0.3,0.8
		s0.5,0.3,0.7,0.3l32.8,0c0.1,0,0.1,0,0.2,0c0.3,0,0.5-0.1,0.7-0.4s0.3-0.5,0.2-0.8c-0.1-1.2-0.4-2.4-0.7-3.6
		c-1.6-5.6-7.8-7.6-12.6-7.6h-8.3c-4.9,0-11.1,2-12.6,7.6l0,0C6.2,37.4,5.9,38.6,5.8,39.8C5.8,39.8,5.8,39.8,5.8,39.8z M5.3,35.9
		L5.3,35.9L5.3,35.9z"/>
</g>
</svg>
