<?xml version="1.0" encoding="utf-8"?>
<!-- Generator: Adobe Illustrator 28.1.0, SVG Export Plug-In . SVG Version: 6.00 Build 0)  -->
<svg version="1.1" id="Capa_1" xmlns="http://www.w3.org/2000/svg" xmlns:xlink="http://www.w3.org/1999/xlink" x="0px" y="0px"
	 viewBox="0 0 40.1 39.2" style="enable-background:new 0 0 40.1 39.2;" xml:space="preserve">
<style type="text/css">
	.st0{fill:#AE7204;}
</style>
<g id="user_Icon" transform="translate(-3.296 -4.25)">
	<path class="st0" d="M23,23.7c-5.4,0-9.8-4.4-9.8-9.8s4.4-9.8,9.8-9.8s9.8,4.4,9.8,9.8S28.4,23.7,23,23.7z M23,6.7
		c-4,0-7.2,3.3-7.2,7.3s3.3,7.2,7.2,7.2c4,0,7.2-3.3,7.2-7.2S27,6.7,23,6.7z"/>
	<path class="st0" d="M6.7,43.5c-0.8,0-1.6-0.3-2.3-0.9c-0.7-0.6-1.1-1.5-1.1-2.4l0-0.5l0-0.1c0.2-1.4,0.6-2.8,0.8-3.9l0,0
		c1.6-5.7,7.5-9.4,15.1-9.4h8.3c7.5,0,13.4,3.7,15,9.4c0.4,1.3,0.6,2.5,0.7,4c0.2,2-1.3,3.7-3.2,3.8l-0.4,0H6.9
		C6.8,43.5,6.7,43.5,6.7,43.5z M5.8,39.8V40c0,0.2,0.1,0.5,0.4,0.7C6.3,40.9,6.5,41,6.8,41l33,0c0.5-0.1,1-0.5,0.9-1.2
		c-0.1-1.3-0.3-2.4-0.6-3.5c-1.6-5.6-7.8-7.6-12.6-7.6h-8.3c-4.9,0-11.1,2-12.7,7.6C6.3,37.2,6,38.5,5.8,39.8z"/>
</g>
</svg>
